KRSPY-parametric-NarrowBlackMaxGrade.ufo
<glyph name="three" format="2">
  <advance width="1504"/>
  <unicode hex="0033"/>
  <outline>
    <contour>
      <point x="82" y="0" type="line" identifier="O9abUc1nmN"/>
      <point x="1424" y="0" type="line" identifier="kMJYMTfXCq"/>
      <point x="1424" y="899" type="line" identifier="su2XmdS8e8"/>
      <point x="1301" y="899" type="line" identifier="JQaOzDQqlF"/>
      <point x="1301" y="901" type="line"/>
      <point x="1379" y="967" type="line" identifier="S91TzLL02W"/>
      <point x="1379" y="1600" type="line" identifier="xg8x2Ki40p"/>
      <point x="84" y="1600" type="line" identifier="pE1XSRiy68"/>
      <point x="84" y="1023" type="line" identifier="5lNstGRcSF"/>
      <point x="701" y="1023" type="line" identifier="AcE5xKDZfE"/>
      <point x="701" y="1190" type="line" identifier="7ogBYufWpl"/>
      <point x="762" y="1190" type="line" identifier="RHLvSX2Jv6"/>
      <point x="762" y="967" type="line" identifier="YUjTrmoWd9"/>
      <point x="690" y="902" type="line"/>
      <point x="690" y="899" type="line" identifier="iic1IBkDqp"/>
      <point x="166" y="899" type="line" identifier="lRLJEhXMlO"/>
      <point x="166" y="654" type="line" identifier="8aKgEELrVU"/>
      <point x="807" y="654" type="line" identifier="Dm8zjmbhNr"/>
      <point x="807" y="401" type="line" identifier="xv9CFHiFgB"/>
      <point x="699" y="401" type="line" identifier="YajKQV3MHP"/>
      <point x="699" y="522" type="line" identifier="36SchVkwze"/>
      <point x="82" y="522" type="line" identifier="tVui9PiOjA"/>
    </contour>
  </outline>
</glyph>
<glyph name="four" format="2">
  <advance width="1489"/>
  <unicode hex="0034"/>
  <outline>
    <contour>
      <point x="774" y="0" type="line"/>
      <point x="1391" y="0" type="line"/>
      <point x="1391" y="586" type="line"/>
      <point x="1484" y="586" type="line"/>
      <point x="1484" y="988" type="line"/>
      <point x="1391" y="988" type="line"/>
      <point x="1391" y="1600" type="line"/>
      <point x="774" y="1600" type="line"/>
      <point x="774" y="988" type="line"/>
      <point x="684" y="988" type="line"/>
      <point x="684" y="1034" type="line"/>
      <point x="772" y="1680" type="line"/>
      <point x="170" y="1680" type="line"/>
      <point x="67" y="1033" type="line"/>
      <point x="67" y="586" type="line"/>
      <point x="774" y="586" type="line"/>
    </contour>
  </outline>
</glyph>
<glyph name="six" format="2">
  <advance width="1498"/>
  <unicode hex="0036"/>
  <outline>
    <contour>
      <point x="76" y="0" type="line" identifier="uiw6aBUf4P"/>
      <point x="1419" y="0" type="line" identifier="jtYkxiUX6G"/>
      <point x="1419" y="914" type="line" identifier="2G5L37c87I"/>
      <point x="693" y="914" type="line"/>
      <point x="693" y="1092" type="line"/>
      <point x="710" y="1199" type="line"/>
      <point x="801" y="1199" type="line"/>
      <point x="801" y="1048" type="line"/>
      <point x="1417" y="1048" type="line" identifier="Wuidbv6mUe"/>
      <point x="1417" y="1600" type="line" identifier="oGvEEuxnYv"/>
      <point x="121" y="1600" type="line" identifier="xR3pEHbMJx"/>
      <point x="76" y="1093" type="line" identifier="KnMArb0tv8"/>
    </contour>
    <contour>
      <point x="802" y="582" type="line"/>
      <point x="802" y="401" type="line"/>
      <point x="693" y="401" type="line"/>
      <point x="693" y="582" type="line"/>
    </contour>
  </outline>
</glyph>
<glyph name="seven" format="2">
  <advance width="1498.7387387387387"/>
  <unicode hex="0037"/>
  <outline>
    <contour>
      <point x="590.5255255255255" y="0.0" type="line"/>
      <point x="1207.4444444444443" y="0.0" type="line" identifier="PiPrv7Kcoy"/>
      <point x="1417.261261261261" y="1036.2252252252251" type="line" identifier="PkvwNC9Tx1"/>
      <point x="1417.261261261261" y="1600.0" type="line" identifier="tgqM27bPOm"/>
      <point x="76.05405405405405" y="1600.0" type="line" identifier="36ml4xRICt"/>
      <point x="76.05405405405405" y="960.7807807807808" type="line" identifier="aaDZsh5Mah"/>
      <point x="692.9729729729729" y="960.7807807807808" type="line"/>
      <point x="692.9729729729729" y="1198.7807807807808" type="line"/>
      <point x="800.3423423423422" y="1198.7807807807808" type="line"/>
      <point x="800.3423423423422" y="1176.6246246246246" type="line"/>
    </contour>
  </outline>
</glyph>
<glyph name="eight" format="2">
  <advance width="1542.144144144144"/>
  <unicode hex="0038"/>
  <outline>
    <contour>
      <point x="771.9879879879879" y="642.7837837837837" type="line"/>
      <point x="832.3243243243243" y="579.4264264264264" type="line"/>
      <point x="832.3243243243243" y="401.2192192192192" type="line"/>
      <point x="709.8198198198197" y="401.2192192192192" type="line"/>
      <point x="709.8198198198197" y="579.4264264264264" type="line"/>
      <point x="770.1561561561562" y="642.7837837837837" type="line"/>
    </contour>
    <contour>
      <point x="1319.3153153153153" y="799.0" type="line"/>
      <point x="1319.3153153153153" y="801.0" type="line"/>
      <point x="1445.5315315315315" y="985.3423423423424" type="line"/>
      <point x="1445.5315315315315" y="1600.0" type="line"/>
      <point x="96.61261261261261" y="1600.0" type="line"/>
      <point x="96.61261261261261" y="985.3423423423424" type="line"/>
      <point x="224.56456456456456" y="801.0" type="line"/>
      <point x="224.56456456456456" y="799.0" type="line"/>
      <point x="92.9009009009009" y="611.6576576576576" type="line"/>
      <point x="92.9009009009009" y="0.0" type="line"/>
      <point x="1449.2432432432431" y="0.0" type="line"/>
      <point x="1449.2432432432431" y="611.6576576576576" type="line"/>
    </contour>
    <contour>
      <point x="770.1561561561562" y="957.2162162162163" type="line"/>
      <point x="713.5315315315315" y="1017.5735735735736" type="line"/>
      <point x="713.5315315315315" y="1198.7807807807808" type="line"/>
      <point x="828.6126126126126" y="1198.7807807807808" type="line"/>
      <point x="828.6126126126126" y="1017.5735735735736" type="line"/>
      <point x="771.9879879879879" y="957.2162162162163" type="line"/>
    </contour>
  </outline>
</glyph>
<glyph name="nine" format="2">
  <advance width="1498"/>
  <unicode hex="0039"/>
  <outline>
    <contour>
      <point x="1420" y="1600" type="line" identifier="uiw6aBUf4P"/>
      <point x="77" y="1600" type="line" identifier="jtYkxiUX6G"/>
      <point x="77" y="669" type="line" identifier="2G5L37c87I"/>
      <point x="803" y="669" type="line"/>
      <point x="803" y="401" type="line"/>
      <point x="696" y="401" type="line"/>
      <point x="696" y="544" type="line"/>
      <point x="79" y="544" type="line" identifier="Wuidbv6mUe"/>
      <point x="79" y="0" type="line" identifier="oGvEEuxnYv"/>
      <point x="1420" y="0" type="line" identifier="xR3pEHbMJx"/>
    </contour>
    <contour>
      <point x="694" y="992" type="line"/>
      <point x="694" y="1199" type="line"/>
      <point x="803" y="1199" type="line"/>
      <point x="803" y="992" type="line"/>
    </contour>
  </outline>
</glyph>
<glyph name="A" format="2">
  <advance width="1439.6666666666667"/>
  <unicode hex="0041"/>
  <outline>
    <contour>
      <point x="39.81081081081081" y="0.0" type="line" smooth="yes" identifier="jFq8ta4UUc"/>
      <point x="656.7297297297297" y="0.0" type="line" smooth="yes" identifier="dQz4RxYhG4"/>
      <point x="656.7297297297297" y="460.5315315315315" type="line" smooth="yes" identifier="viYRWe5UN7"/>
      <point x="766.8378378378378" y="460.5315315315315" type="line" smooth="yes" identifier="QVexAlbAcl"/>
      <point x="766.8378378378378" y="0.0" type="line" smooth="yes" identifier="ZgsCdxNJRW"/>
      <point x="1383.7567567567567" y="0.0" type="line" smooth="yes" identifier="kpn4Kw9J0C"/>
      <point x="1383.7567567567567" y="1600.0" type="line" smooth="yes" identifier="OBZ5Ayed7M"/>
      <point x="184.43843843843845" y="1600.0" type="line" smooth="yes" identifier="iDT0uyhKrn"/>
      <point x="39.81081081081081" y="952.4984984984985" type="line" smooth="yes" identifier="dqVr87m3uJ"/>
    </contour>
    <contour>
      <point x="656.7297297297297" y="861.7507507507507" type="line" smooth="yes" identifier="IIRC9Wy7kQ"/>
      <point x="656.7297297297297" y="952.4984984984985" type="line" smooth="yes" identifier="VufvPdJ075"/>
      <point x="703.8738738738738" y="1198.7807807807808" type="line" smooth="yes" identifier="FsYtJ2vFnp"/>
      <point x="766.8378378378378" y="1198.7807807807808" type="line" smooth="yes" identifier="tUsW8L7b0y"/>
      <point x="766.8378378378378" y="861.7507507507507" type="line" smooth="yes" identifier="eTe9B4y76W"/>
    </contour>
  </outline>
</glyph>
<glyph name="B" format="2">
  <advance width="1483"/>
  <unicode hex="0042"/>
  <outline>
    <contour>
      <point x="71" y="0" type="line" identifier="hvY9r8RmLr"/>
      <point x="1414" y="0" type="line" identifier="9QFpw7nfq7"/>
      <point x="1414" y="619" type="line" identifier="543PerILpr"/>
      <point x="1303" y="799" type="line" identifier="zhomauHW30"/>
      <point x="1303" y="801" type="line" identifier="870ZhtaozS"/>
      <point x="1410" y="985" type="line" identifier="eGKH52Jgnk"/>
      <point x="1410" y="1600" type="line" identifier="FaP204GrdB"/>
      <point x="71" y="1600" type="line" identifier="JEev70GAj6"/>
    </contour>
    <contour>
      <point x="688" y="975" type="line" identifier="By7dfMihfe"/>
      <point x="688" y="1197" type="line" identifier="1p5hKrurVy"/>
      <point x="793" y="1197" type="line" identifier="Qby8aMtF2X"/>
      <point x="793" y="1036" type="line" identifier="9lW01gQyU2"/>
      <point x="756" y="975" type="line" identifier="xpxyvIzPoc"/>
    </contour>
    <contour>
      <point x="688" y="401" type="line" identifier="jaMSiLrCua"/>
      <point x="688" y="625" type="line" identifier="XSrxNd2axx"/>
      <point x="756" y="625" type="line" identifier="VyYlzRh5nq"/>
      <point x="797" y="571" type="line" identifier="lsRGatjQja"/>
      <point x="797" y="401" type="line" identifier="xhlDJ3CjD5"/>
    </contour>
  </outline>
</glyph>
<glyph name="C" format="2">
  <advance width="1474"/>
  <unicode hex="0043"/>
  <outline>
    <contour>
      <point x="67" y="0" type="line" identifier="7lPhzTnk2Z"/>
      <point x="1409" y="0" type="line" identifier="qJVLZGnkwh"/>
      <point x="1409" y="586" type="line" identifier="nDnDHzAMXL"/>
      <point x="792" y="586" type="line" identifier="QX1V08aTu0"/>
      <point x="792" y="401" type="line" identifier="Y750RHTvDj"/>
      <point x="684" y="401" type="line" identifier="L2LsGnXiZ2"/>
      <point x="684" y="975" type="line" identifier="sUWsr03vF4"/>
      <point x="728" y="1199" type="line" identifier="dbOUe6OhxL"/>
      <point x="791" y="1199" type="line" identifier="5BjRbcud80"/>
      <point x="791" y="875" type="line" identifier="fNVDqwQo2o"/>
      <point x="1408" y="875" type="line" identifier="wLqQQx7QVN"/>
      <point x="1408" y="1600" type="line" identifier="9eJelv8BOw"/>
      <point x="190" y="1600" type="line" identifier="lfZev3ICaC"/>
      <point x="67" y="1011" type="line" identifier="V1EWIdPahq"/>
    </contour>
  </outline>
</glyph>
<glyph name="O" format="2">
  <advance width="1424.5405405405404"/>
  <unicode hex="004F"/>
  <outline>
    <contour>
      <point x="1384.7297297297296" y="555.4084084084084" type="line" identifier="ob8US3C311"/>
      <point x="1384.7297297297296" y="1600.0" type="line" identifier="c9brEFyXXA"/>
      <point x="172.02702702702703" y="1600.0" type="line" identifier="a4Ql951bxG"/>
      <point x="39.81081081081081" y="1041.705705705706" type="line" identifier="kbL68Qh2zr"/>
      <point x="39.81081081081081" y="0.0" type="line" identifier="U6WibAQAUl"/>
      <point x="1252.8018018018017" y="0.0" type="line" identifier="dfgNHTgBfR"/>
    </contour>
    <contour>
      <point x="767.8108108108107" y="627.6036036036035" type="line" identifier="SnrsQD5TLy"/>
      <point x="734.8258258258259" y="401.2192192192192" type="line" identifier="jjd5iRDXWT"/>
      <point x="656.7297297297297" y="401.2192192192192" type="line" identifier="YbQKHpAtYn"/>
      <point x="656.7297297297297" y="972.6936936936938" type="line" identifier="vdfGLkskOQ"/>
      <point x="690.003003003003" y="1198.7807807807808" type="line" identifier="qXlVxK5ShE"/>
      <point x="767.8108108108107" y="1198.7807807807808" type="line" identifier="g70r2r6DwY"/>
    </contour>
  </outline>
</glyph>
<glyph name="S" format="2">
  <advance width="1499.4954954954953"/>
  <unicode hex="0053"/>
  <outline>
    <contour>
      <point x="84.58258258258257" y="0.0" type="line" identifier="09VlJ0BjUX"/>
      <point x="1418.075075075075" y="0.0" type="line" identifier="EagWihqFM8"/>
      <point x="1418.075075075075" y="983.5105105105105" type="line" identifier="KfNuQA7eZe"/>
      <point x="699.4984984984985" y="983.5105105105105" type="line" identifier="At364YZFEy"/>
      <point x="699.4984984984985" y="1224.8168168168168" type="line" identifier="BcuLfvaQKC"/>
      <point x="801.1561561561562" y="1224.8168168168168" type="line" identifier="3ZUkG35meB"/>
      <point x="801.1561561561562" y="1100.5075075075074" type="line" identifier="DTOJhFIl15"/>
      <point x="1418.075075075075" y="1100.5075075075074" type="line" identifier="9KDcrfQ5Ui"/>
      <point x="1418.075075075075" y="1600.0" type="line" identifier="SaF9ojRFrW"/>
      <point x="82.57957957957956" y="1600.0" type="line" identifier="F4sQEYelA8"/>
      <point x="82.57957957957956" y="622.8378378378378" type="line" identifier="3sQ8t8BZ6b"/>
      <point x="801.1561561561562" y="622.8378378378378" type="line" identifier="yiV6OCBLHg"/>
      <point x="801.1561561561562" y="401.2192192192192" type="line" identifier="9kdl9SYsn8"/>
      <point x="700.6336336336336" y="401.2192192192192" type="line" identifier="yZDWuX8LLe"/>
      <point x="700.6336336336336" y="515.5105105105106" type="line" identifier="jYb9001DTm"/>
      <point x="84.58258258258257" y="515.5105105105106" type="line" identifier="ho4DrS0rdW"/>
    </contour>
  </outline>
</glyph>
<glyph name="V" format="2">
  <advance width="1437.9279279279278"/>
  <unicode hex="0056"/>
  <outline>
    <contour>
      <point x="672.8288288288288" y="1600.0" type="line" smooth="yes"/>
      <point x="672.8288288288288" y="401.2192192192192" type="line"/>
      <point x="748.2942942942943" y="401.2192192192192" type="line" smooth="yes"/>
      <point x="781.1981981981982" y="550.7447447447448" type="line" smooth="yes"/>
      <point x="781.1981981981982" y="1600.0" type="line"/>
      <point x="1398.117117117117" y="1600.0" type="line" smooth="yes"/>
      <point x="1398.117117117117" y="550.7447447447448" type="line" smooth="yes"/>
      <point x="1267.7117117117116" y="0.0" type="line" smooth="yes"/>
      <point x="55.909909909909906" y="0.0" type="line" smooth="yes"/>
      <point x="55.909909909909906" y="1600.0" type="line" smooth="yes"/>
    </contour>
  </outline>
</glyph>
<glyph name="W" format="2">
  <advance width="2119.0900900900897"/>
  <unicode hex="0057"/>
  <outline>
    <contour>
      <point x="673.5405405405405" y="1600.0" type="line" smooth="yes" identifier="12Pyby1xY2"/>
      <point x="55.909909909909906" y="1600.0" type="line" smooth="yes" identifier="5LJg4ajoG6"/>
      <point x="55.909909909909906" y="0.0" type="line" smooth="yes" identifier="ZqTZqAY3uY"/>
      <point x="992.5675675675675" y="0.0" type="line" smooth="yes" identifier="rCeQLyjlsN"/>
      <point x="1048.8018018018017" y="284.4804804804805" type="line"/>
      <point x="1063.7477477477478" y="284.4804804804805" type="line"/>
      <point x="1063.7477477477478" y="0.0" type="line" smooth="yes" identifier="Pkl7cZ37MU"/>
      <point x="1920.6936936936936" y="0.0" type="line" smooth="yes" identifier="R4lklfJsHA"/>
      <point x="2079.279279279279" y="536.5105105105106" type="line" smooth="yes" identifier="7g7f8Wu7K4"/>
      <point x="2079.279279279279" y="1600.0" type="line" smooth="yes" identifier="RTOJW56qXy"/>
      <point x="1461.6486486486485" y="1600.0" type="line" identifier="JfSFAkWGZC"/>
      <point x="1461.6486486486485" y="527.9459459459459" type="line" smooth="yes" identifier="WWvGwSpq0g"/>
      <point x="1416.9339339339338" y="401.2192192192192" type="line" smooth="yes" identifier="oee4nqI8Wl"/>
      <point x="1374.6306306306305" y="401.2192192192192" type="line" identifier="Ljn2lpvpG8"/>
      <point x="1353.279279279279" y="545.4684684684685" type="line"/>
      <point x="1354.147147147147" y="1339.6396396396397" type="line" smooth="yes"/>
      <point x="782.7777777777777" y="1339.6396396396397" type="line"/>
      <point x="781.9099099099099" y="529.2522522522522" type="line"/>
      <point x="781.6216216216216" y="515.018018018018" type="line"/>
      <point x="751.4294294294294" y="401.2192192192192" type="line" identifier="GlWB6PG54Z"/>
      <point x="673.5405405405405" y="401.2192192192192" type="line" identifier="iqeTRv7HXg"/>
    </contour>
  </outline>
</glyph>
<glyph name="X" format="2">
  <advance width="1435.9639639639638"/>
  <unicode hex="0058"/>
  <outline>
    <contour>
      <point x="718.8978978978978" y="599.3903903903904" type="line"/>
      <point x="779.2342342342342" y="553.3903903903904" type="line"/>
      <point x="779.2342342342342" y="0.0" type="line"/>
      <point x="1396.153153153153" y="0.0" type="line"/>
      <point x="1396.153153153153" y="611.6576576576576" type="line"/>
      <point x="1265.3573573573574" y="799.0" type="line"/>
      <point x="1265.3573573573574" y="801.0" type="line"/>
      <point x="1392.153153153153" y="985.3423423423424" type="line"/>
      <point x="1392.153153153153" y="1600.0" type="line"/>
      <point x="776.1021021021021" y="1600.0" type="line"/>
      <point x="776.1021021021021" y="1043.6096096096096" type="line"/>
      <point x="718.8978978978978" y="1000.6096096096096" type="line"/>
      <point x="717.066066066066" y="1000.6096096096096" type="line"/>
      <point x="659.8618618618618" y="1043.6096096096096" type="line"/>
      <point x="659.8618618618618" y="1600.0" type="line"/>
      <point x="43.81081081081081" y="1600.0" type="line"/>
      <point x="43.81081081081081" y="985.3423423423424" type="line"/>
      <point x="170.6066066066066" y="801.0" type="line"/>
      <point x="170.6066066066066" y="799.0" type="line"/>
      <point x="39.81081081081081" y="611.6576576576576" type="line"/>
      <point x="39.81081081081081" y="0.0" type="line"/>
      <point x="656.7297297297297" y="0.0" type="line"/>
      <point x="656.7297297297297" y="553.3903903903904" type="line"/>
      <point x="717.066066066066" y="599.3903903903904" type="line"/>
    </contour>
  </outline>
</glyph>
<glyph name="C.wide" format="2">
  <advance width="1474"/>
  <outline>
    <contour>
      <point x="67" y="0" type="line" identifier="7lPhzTnk2Z"/>
      <point x="1409" y="0" type="line" identifier="qJVLZGnkwh"/>
      <point x="1409" y="401" type="line" identifier="Y750RHTvDj"/>
      <point x="684" y="401" type="line" identifier="L2LsGnXiZ2"/>
      <point x="684" y="975" type="line" identifier="sUWsr03vF4"/>
      <point x="728" y="1199" type="line" identifier="dbOUe6OhxL"/>
      <point x="1408" y="1199" type="line" identifier="5BjRbcud80"/>
      <point x="1408" y="1600" type="line" identifier="9eJelv8BOw"/>
      <point x="190" y="1600" type="line" identifier="lfZev3ICaC"/>
      <point x="67" y="1011" type="line" identifier="V1EWIdPahq"/>
    </contour>
  </outline>
</glyph>
<glyph name="E.wide" format="2">
  <advance width="1332.8468468468468"/>
  <outline>
    <contour>
      <point x="55.909909909909906" y="0.0" type="line" identifier="fZynkQ4XHB"/>
      <point x="1304.2882882882882" y="0.0" type="line" identifier="FAQNpgUPxV"/>
      <point x="1304.2882882882882" y="384.72972972972974" type="line" identifier="5cgTYOhATF"/>
      <point x="672.8288288288288" y="384.72972972972974" type="line" identifier="bWs42DaCgU"/>
      <point x="672.8288288288288" y="616.7477477477478" type="line" identifier="VtD2aADJmn"/>
      <point x="1251.2522522522522" y="616.7477477477478" type="line" identifier="PpbsFdHAnS"/>
      <point x="1251.2522522522522" y="984.1201201201201" type="line" identifier="8WuC5p8Ax5"/>
      <point x="672.8288288288288" y="984.1201201201201" type="line" identifier="m39IWn9ntA"/>
      <point x="672.8288288288288" y="1224.8168168168168" type="line" identifier="gQ21I4SHQg"/>
      <point x="1303.2882882882882" y="1224.8168168168168" type="line" identifier="eqNb2VTwYs"/>
      <point x="1303.2882882882882" y="1600.0" type="line" identifier="qYRmo14Il5"/>
      <point x="55.909909909909906" y="1600.0" type="line" identifier="HmJIcnLWfC"/>
    </contour>
  </outline>
</glyph>
<glyph name="G.wide" format="2">
  <advance width="1450.0150150150148"/>
  <outline>
    <contour>
      <point x="39.81081081081081" y="0.0" type="line" identifier="7lPhzTnk2Z"/>
      <point x="1380.5945945945946" y="0.0" type="line" identifier="qJVLZGnkwh"/>
      <point x="1380.5945945945946" y="894.033033033033" type="line" identifier="uek1NNj7De"/>
      <point x="694.5045045045044" y="894.033033033033" type="line" identifier="qcvimxjndX"/>
      <point x="694.5045045045044" y="570.9219219219219" type="line" identifier="EARaY3Su65"/>
      <point x="769.3693693693693" y="570.9219219219219" type="line" identifier="4m6dHLVhZq"/>
      <point x="769.3693693693693" y="401.2192192192192" type="line" identifier="Y750RHTvDj"/>
      <point x="656.7297297297297" y="401.2192192192192" type="line" identifier="L2LsGnXiZ2"/>
      <point x="656.7297297297297" y="1036.3303303303303" type="line" identifier="sUWsr03vF4"/>
      <point x="683.5645645645645" y="1198.7807807807808" type="line" identifier="dbOUe6OhxL"/>
      <point x="1381.018018018018" y="1198.7807807807808" type="line" identifier="5BjRbcud80"/>
      <point x="1381.018018018018" y="1600.0" type="line" identifier="9eJelv8BOw"/>
      <point x="120.1081081081081" y="1600.0" type="line" identifier="lfZev3ICaC"/>
      <point x="39.81081081081081" y="1051.5645645645645" type="line" identifier="V1EWIdPahq"/>
    </contour>
  </outline>
</glyph>
<glyph name="K.alt" format="2">
  <advance width="1495.177177177177"/>
  <outline>
    <contour>
      <point x="687.8318318318319" y="0.0" type="line" identifier="wmNm7XZsaF"/>
      <point x="687.8318318318319" y="599.3903903903904" type="line" identifier="O22liaP9Qk"/>
      <point x="736.5765765765766" y="599.3903903903904" type="line" identifier="ELFBWIb1vd"/>
      <point x="796.9129129129129" y="541.7987987987988" type="line" identifier="DzXo67YEfw"/>
      <point x="796.9129129129129" y="0.0" type="line" identifier="aKpYWD78l2"/>
      <point x="1413.8318318318318" y="0.0" type="line" identifier="ChS7KlqGi6"/>
      <point x="1413.8318318318318" y="600.066066066066" type="line" identifier="sWLgkU8Vey"/>
      <point x="1282.4564564564564" y="799.0" type="line" identifier="Of0iQc0wBG"/>
      <point x="1282.4564564564564" y="801.0" type="line" identifier="j4jnmtDJYB"/>
      <point x="1395.885885885886" y="1600.0" type="line" identifier="dMJ1ywOKQQ"/>
      <point x="807.4354354354355" y="1600.0" type="line" identifier="08OWjR2YBJ"/>
      <point x="746.4114114114114" y="1000.6096096096096" type="line" identifier="g4YLdZEoM3"/>
      <point x="687.8318318318319" y="1000.6096096096096" type="line" identifier="uZuki3Isec"/>
      <point x="687.8318318318319" y="1600.0" type="line" identifier="nRfcNgqJ4H"/>
      <point x="70.9129129129129" y="1600.0" type="line" identifier="3XJlWt89ad"/>
      <point x="70.9129129129129" y="0.0" type="line" identifier="wdbO8kCovY"/>
    </contour>
  </outline>
</glyph>
<glyph name="N.wide" format="2">
  <advance width="1991"/>
  <outline>
    <contour>
      <point x="172" y="0" type="line" identifier="CkwYPPvJLv"/>
      <point x="789" y="0" type="line" identifier="oHTJsN7drZ"/>
      <point x="789" y="1051" type="line" identifier="wfBbYd10Pm"/>
      <point x="801" y="1051" type="line" identifier="MEnBDHq6zU"/>
      <point x="1292" y="0" type="line" identifier="3Nbopwznvn"/>
      <point x="1900" y="0" type="line" identifier="uKfuudIUvA"/>
      <point x="1900" y="1600" type="line" identifier="XRdLFXiM4t"/>
      <point x="1283" y="1600" type="line" identifier="MUSJPjCIXg"/>
      <point x="1283" y="589" type="line" identifier="VILP20cFmq"/>
      <point x="1282" y="589" type="line" identifier="z5b04GDwRN"/>
      <point x="816" y="1600" type="line" identifier="LL64NQ6WBE"/>
      <point x="172" y="1600" type="line" identifier="dzUaaP1sjt"/>
    </contour>
  </outline>
</glyph>
<glyph name="R.alt" format="2">
  <advance width="1531.8228228228227"/>
  <outline>
    <contour>
      <point x="714.3723723723723" y="913.8228228228228" type="line"/>
      <point x="714.3723723723723" y="1198.7807807807808" type="line"/>
      <point x="819.7417417417417" y="1198.7807807807808" type="line"/>
      <point x="819.7417417417417" y="913.8228228228228" type="line"/>
    </contour>
    <contour>
      <point x="1444.4144144144143" y="0.0" type="line"/>
      <point x="1324.3033033033032" y="618.1711711711712" type="line"/>
      <point x="1436.6606606606606" y="670.2432432432432" type="line"/>
      <point x="1436.6606606606606" y="1600.0" type="line"/>
      <point x="97.45345345345345" y="1600.0" type="line"/>
      <point x="97.45345345345345" y="0.0" type="line"/>
      <point x="714.3723723723723" y="0.0" type="line"/>
      <point x="714.3723723723723" y="512.6036036036037" type="line"/>
      <point x="800.045045045045" y="511.18018018018023" type="line"/>
      <point x="884.4324324324324" y="0.0" type="line"/>
    </contour>
  </outline>
</glyph>
<glyph name="S.alt" format="2">
  <advance width="1397.3753753753754"/>
  <outline>
    <contour>
      <point x="68.06006006006005" y="0.0" type="line" identifier="09VlJ0BjUX"/>
      <point x="1326.114114114114" y="0.0" type="line" identifier="EagWihqFM8"/>
      <point x="1326.114114114114" y="974.5735735735736" type="line" identifier="KfNuQA7eZe"/>
      <point x="606.8258258258259" y="974.5735735735736" type="line" identifier="At364YZFEy"/>
      <point x="606.8258258258259" y="1072.4774774774776" type="line"/>
      <point x="638.6696696696697" y="1198.7807807807808" type="line"/>
      <point x="708.4834834834835" y="1198.7807807807808" type="line" identifier="3ZUkG35meB"/>
      <point x="708.4834834834835" y="1148.918918918919" type="line" identifier="DTOJhFIl15"/>
      <point x="1326.114114114114" y="1148.918918918919" type="line" identifier="9KDcrfQ5Ui"/>
      <point x="1326.114114114114" y="1600.0" type="line" identifier="SaF9ojRFrW"/>
      <point x="198.58258258258257" y="1600.0" type="line"/>
      <point x="66.06006006006005" y="1115.1801801801803" type="line"/>
      <point x="66.06006006006005" y="625.4264264264264" type="line" identifier="3sQ8t8BZ6b"/>
      <point x="708.4834834834835" y="625.4264264264264" type="line" identifier="yiV6OCBLHg"/>
      <point x="708.4834834834835" y="401.2192192192192" type="line" identifier="9kdl9SYsn8"/>
      <point x="665.7627627627628" y="401.2192192192192" type="line" identifier="yZDWuX8LLe"/>
      <point x="665.7627627627628" y="511.1711711711712" type="line" identifier="jYb9001DTm"/>
      <point x="68.06006006006005" y="511.1711711711712" type="line" identifier="ho4DrS0rdW"/>
    </contour>
  </outline>
</glyph>
<glyph name="S.wide" format="2">
  <advance width="1328.4234234234234"/>
  <outline>
    <contour>
      <point x="41.81081081081081" y="0.0" type="line" identifier="09VlJ0BjUX"/>
      <point x="1299.8648648648648" y="0.0" type="line" identifier="EagWihqFM8"/>
      <point x="1299.8648648648648" y="974.5735735735736" type="line" identifier="KfNuQA7eZe"/>
      <point x="580.5765765765765" y="974.5735735735736" type="line" identifier="At364YZFEy"/>
      <point x="580.5765765765765" y="1072.4774774774776" type="line"/>
      <point x="612.4204204204203" y="1198.7807807807808" type="line"/>
      <point x="1299.8648648648648" y="1198.7807807807808" type="line" identifier="3ZUkG35meB"/>
      <point x="1299.8648648648648" y="1600.0" type="line" identifier="SaF9ojRFrW"/>
      <point x="172.33333333333331" y="1600.0" type="line"/>
      <point x="39.81081081081081" y="1115.1801801801803" type="line"/>
      <point x="39.81081081081081" y="625.4264264264264" type="line" identifier="3sQ8t8BZ6b"/>
      <point x="682.2342342342342" y="625.4264264264264" type="line" identifier="yiV6OCBLHg"/>
      <point x="682.2342342342342" y="401.2192192192192" type="line" identifier="9kdl9SYsn8"/>
      <point x="41.81081081081081" y="401.2192192192192" type="line" identifier="yZDWuX8LLe"/>
    </contour>
  </outline>
</glyph>
<glyph name="Z.wide" format="2">
  <advance width="1494"/>
  <outline>
    <contour>
      <point x="76" y="0" type="line"/>
      <point x="1418" y="0" type="line" identifier="pzdvPTirLJ"/>
      <point x="1418" y="401" type="line"/>
      <point x="693" y="401" type="line"/>
      <point x="693" y="543" type="line"/>
      <point x="1428" y="1254" type="line" identifier="yyb1NCCI5w"/>
      <point x="1428" y="1600" type="line" identifier="5FogYRSgkk"/>
      <point x="80" y="1600" type="line" identifier="svlFvrau4c"/>
      <point x="80" y="1199" type="line"/>
      <point x="808" y="1199" type="line"/>
      <point x="808" y="1239" type="line"/>
      <point x="76" y="546" type="line" identifier="teVKnpBcVb"/>
    </contour>
  </outline>
</glyph>
